<svg id="mermaidSvgId" width="100%" xmlns="http://www.w3.org/2000/svg" class="flowchart" style="max-width: 1153.8228759765625px;" viewBox="0 0 1153.8228759765625 708.3333129882812" role="graphics-document document" aria-roledescription="flowchart-v2"><style>#mermaidSvgId{font-family:"trebuchet ms",verdana,arial,sans-serif;font-size:16px;fill:#0a0f14;}@keyframes edge-animation-frame{from{stroke-dashoffset:0;}}@keyframes dash{to{stroke-dashoffset:0;}}#mermaidSvgId .edge-animation-slow{stroke-dasharray:9,5!important;stroke-dashoffset:900;animation:dash 50s linear infinite;stroke-linecap:round;}#mermaidSvgId .edge-animation-fast{stroke-dasharray:9,5!important;stroke-dashoffset:900;animation:dash 20s linear infinite;stroke-linecap:round;}#mermaidSvgId .error-icon{fill:#ffebee;}#mermaidSvgId .error-text{fill:#c62828;stroke:#c62828;}#mermaidSvgId .edge-thickness-normal{stroke-width:1px;}#mermaidSvgId .edge-thickness-thick{stroke-width:3.5px;}#mermaidSvgId .edge-pattern-solid{stroke-dasharray:0;}#mermaidSvgId .edge-thickness-invisible{stroke-width:0;fill:none;}#mermaidSvgId .edge-pattern-dashed{stroke-dasharray:3;}#mermaidSvgId .edge-pattern-dotted{stroke-dasharray:2;}#mermaidSvgId .marker{fill:#0a0f14;stroke:#0a0f14;}#mermaidSvgId .marker.cross{stroke:#0a0f14;}#mermaidSvgId svg{font-family:"trebuchet ms",verdana,arial,sans-serif;font-size:16px;}#mermaidSvgId p{margin:0;}#mermaidSvgId .label{font-family:"trebuchet ms",verdana,arial,sans-serif;color:#0a0f14;}#mermaidSvgId .cluster-label text{fill:#1e1e1e;}#mermaidSvgId .cluster-label span{color:#1e1e1e;}#mermaidSvgId .cluster-label span p{background-color:transparent;}#mermaidSvgId .label text,#mermaidSvgId span{fill:#0a0f14;color:#0a0f14;}#mermaidSvgId .node rect,#mermaidSvgId .node circle,#mermaidSvgId .node ellipse,#mermaidSvgId .node polygon,#mermaidSvgId .node path{fill:#ffffff;stroke:#1a468b;stroke-width:1px;}#mermaidSvgId .rough-node .label text,#mermaidSvgId .node .label text,#mermaidSvgId .image-shape .label,#mermaidSvgId .icon-shape .label{text-anchor:middle;}#mermaidSvgId .node .katex path{fill:#000;stroke:#000;stroke-width:1px;}#mermaidSvgId .rough-node .label,#mermaidSvgId .node .label,#mermaidSvgId .image-shape .label,#mermaidSvgId .icon-shape .label{text-align:center;}#mermaidSvgId .node.clickable{cursor:pointer;}#mermaidSvgId .root .anchor path{fill:#0a0f14!important;stroke-width:0;stroke:#0a0f14;}#mermaidSvgId .arrowheadPath{fill:#0a0f14;}#mermaidSvgId .edgePath .path{stroke:#0a0f14;stroke-width:2.0px;}#mermaidSvgId .flowchart-link{stroke:#0a0f14;fill:none;}#mermaidSvgId .edgeLabel{background-color:#ffffff;text-align:center;}#mermaidSvgId .edgeLabel p{background-color:#ffffff;}#mermaidSvgId .edgeLabel rect{opacity:0.5;background-color:#ffffff;fill:#ffffff;}#mermaidSvgId .labelBkg{background-color:rgba(255, 255, 255, 0.5);}#mermaidSvgId .cluster rect{fill:#bbd6f2;stroke:#3578c2;stroke-width:1px;}#mermaidSvgId .cluster text{fill:#1e1e1e;}#mermaidSvgId .cluster span{color:#1e1e1e;}#mermaidSvgId div.mermaidTooltip{position:absolute;text-align:center;max-width:200px;padding:2px;font-family:"trebuchet ms",verdana,arial,sans-serif;font-size:12px;background:#bbd6f2;border:1px solid #90b3d9;border-radius:2px;pointer-events:none;z-index:100;}#mermaidSvgId .flowchartTitleText{text-anchor:middle;font-size:18px;fill:#0a0f14;}#mermaidSvgId rect.text{fill:none;stroke-width:0;}#mermaidSvgId .icon-shape,#mermaidSvgId .image-shape{background-color:#ffffff;text-align:center;}#mermaidSvgId .icon-shape p,#mermaidSvgId .image-shape p{background-color:#ffffff;padding:2px;}#mermaidSvgId .icon-shape rect,#mermaidSvgId .image-shape rect{opacity:0.5;background-color:#ffffff;fill:#ffffff;}#mermaidSvgId .label-icon{display:inline-block;height:1em;overflow:visible;vertical-align:-0.125em;}#mermaidSvgId .node .label-icon path{fill:currentColor;stroke:revert;stroke-width:revert;}#mermaidSvgId :root{--mermaid-font-family:"trebuchet ms",verdana,arial,sans-serif;}</style><g><marker id="mermaidSvgId_flowchart-v2-pointEnd" class="marker flowchart-v2" viewBox="0 0 10 10" refX="5" refY="5" markerUnits="userSpaceOnUse" markerWidth="8" markerHeight="8" orient="auto"><path d="M 0 0 L 10 5 L 0 10 z" class="arrowMarkerPath" style="stroke-width: 1; stroke-dasharray: 1, 0;"></path></marker><marker id="mermaidSvgId_flowchart-v2-pointStart" class="marker flowchart-v2" viewBox="0 0 10 10" refX="4.5" refY="5" markerUnits="userSpaceOnUse" markerWidth="8" markerHeight="8" orient="auto"><path d="M 0 5 L 10 10 L 10 0 z" class="arrowMarkerPath" style="stroke-width: 1; stroke-dasharray: 1, 0;"></path></marker><marker id="mermaidSvgId_flowchart-v2-circleEnd" class="marker flowchart-v2" viewBox="0 0 10 10" refX="11" refY="5" markerUnits="userSpaceOnUse" markerWidth="11" markerHeight="11" orient="auto"><circle cx="5" cy="5" r="5" class="arrowMarkerPath" style="stroke-width: 1; stroke-dasharray: 1, 0;"></circle></marker><marker id="mermaidSvgId_flowchart-v2-circleStart" class="marker flowchart-v2" viewBox="0 0 10 10" refX="-1" refY="5" markerUnits="userSpaceOnUse" markerWidth="11" markerHeight="11" orient="auto"><circle cx="5" cy="5" r="5" class="arrowMarkerPath" style="stroke-width: 1; stroke-dasharray: 1, 0;"></circle></marker><marker id="mermaidSvgId_flowchart-v2-crossEnd" class="marker cross flowchart-v2" viewBox="0 0 11 11" refX="12" refY="5.2" markerUnits="userSpaceOnUse" markerWidth="11" markerHeight="11" orient="auto"><path d="M 1,1 l 9,9 M 10,1 l -9,9" class="arrowMarkerPath" style="stroke-width: 2; stroke-dasharray: 1, 0;"></path></marker><marker id="mermaidSvgId_flowchart-v2-crossStart" class="marker cross flowchart-v2" viewBox="0 0 11 11" refX="-1" refY="5.2" markerUnits="userSpaceOnUse" markerWidth="11" markerHeight="11" orient="auto"><path d="M 1,1 l 9,9 M 10,1 l -9,9" class="arrowMarkerPath" style="stroke-width: 2; stroke-dasharray: 1, 0;"></path></marker><g class="root"><g class="clusters"></g><g class="edgePaths"></g><g class="edgeLabels"></g><g class="nodes"><g class="root" transform="translate(0, 0)"><g class="clusters"><g class="cluster" id="WMS" data-look="classic"><rect style="" x="8" y="8" width="1137.8229141235352" height="692.3333406448364"></rect><g class="cluster-label" transform="translate(477.46352767944336, 8)"><g><rect class="background" style="stroke: none"></rect><text y="-10.1" style=""><tspan class="text-outer-tspan" x="0" y="-0.1em" dy="1.1em"><tspan font-style="normal" class="text-inner-tspan" font-weight="normal">Wilaya</tspan><tspan font-style="normal" class="text-inner-tspan" font-weight="normal"> Management</tspan><tspan font-style="normal" class="text-inner-tspan" font-weight="normal"> System</tspan></tspan></text></g></g></g><g class="cluster" id="SA3" data-look="classic"><rect style="" x="229.11458587646484" y="189.67969036102295" width="228.7083282470703" height="174.6536464691162"></rect><g class="cluster-label" transform="translate(290.03125, 189.67969036102295)"><g><rect class="background" style="stroke: none"></rect><text y="-10.1" style=""><tspan class="text-outer-tspan" x="0" y="-0.1em" dy="1.1em"><tspan font-style="normal" class="text-inner-tspan" font-weight="normal">Authentication</tspan></tspan></text></g></g></g><g class="cluster" id="SA2" data-look="classic"><rect style="" x="532.8229141235352" y="364.00000381469727" width="294.59375" height="316.33333683013916"></rect><g class="cluster-label" transform="translate(625.9322891235352, 364.00000381469727)"><g><rect class="background" style="stroke: none"></rect><text y="-10.1" style=""><tspan class="text-outer-tspan" x="0" y="-0.1em" dy="1.1em"><tspan font-style="normal" class="text-inner-tspan" font-weight="normal">Parking</tspan><tspan font-style="normal" class="text-inner-tspan" font-weight="normal"> Station</tspan></tspan><tspan class="text-outer-tspan" x="0" y="1em" dy="1.1em"><tspan font-style="normal" class="text-inner-tspan" font-weight="normal">Management</tspan></tspan></text></g></g></g><g class="cluster" id="SA1" data-look="classic"><rect style="" x="532.8229141235352" y="28" width="575.5" height="316.00000381469727"></rect><g class="cluster-label" transform="translate(750.1640548706055, 28)"><g><rect class="background" style="stroke: none"></rect><text y="-10.1" style=""><tspan class="text-outer-tspan" x="0" y="-0.1em" dy="1.1em"><tspan font-style="normal" class="text-inner-tspan" font-weight="normal">Ticket</tspan><tspan font-style="normal" class="text-inner-tspan" font-weight="normal"> Management</tspan></tspan></text></g></g></g></g><g class="edgePaths"><path d="M123.638,404.201L134.967,381C146.297,357.8,168.956,311.4,186.535,288.2C204.115,265,216.615,265,228.448,265C240.281,265,251.448,265,257.031,265L262.615,265" id="L_Agent_Authenticate_0" class="edge-thickness-normal edge-pattern-solid edge-thickness-normal edge-pattern-solid flowchart-link" style="" marker-end="url(#mermaidSvgId_flowchart-v2-pointEnd)"></path><path d="M112.874,400.288L125.998,347.349C139.121,294.41,165.368,188.532,184.741,135.593C204.115,82.654,216.615,82.654,241.924,82.654C267.233,82.654,305.351,82.654,343.469,82.654C381.587,82.654,419.705,82.654,445.014,82.654C470.323,82.654,482.823,82.654,495.323,82.654C507.823,82.654,520.323,82.654,544.796,95.44C569.27,108.226,605.717,133.797,623.94,146.583L642.164,159.369" id="L_Agent_ManageTickets_0" class="edge-thickness-normal edge-pattern-solid edge-thickness-normal edge-pattern-solid flowchart-link" style="" marker-end="url(#mermaidSvgId_flowchart-v2-pointEnd)"></path><path d="M716.446,161.667L734.941,149.278C753.436,136.889,790.427,112.111,815.172,99.722C839.917,87.333,852.417,87.333,864.25,87.333C876.083,87.333,887.25,87.333,892.833,87.333L898.417,87.333" id="L_ManageTickets_ApproveTicket_0" class="edge-thickness-normal edge-pattern-solid edge-thickness-normal edge-pattern-solid flowchart-link" style="" marker-end="url(#mermaidSvgId_flowchart-v2-pointEnd)"></path><path d="M765.01,186L775.411,186C785.813,186,806.615,186,823.266,186C839.917,186,852.417,186,865.254,186C878.092,186,891.267,186,897.855,186L904.443,186" id="L_ManageTickets_RefuseTicket_0" class="edge-thickness-normal edge-pattern-solid edge-thickness-normal edge-pattern-solid flowchart-link" style="" marker-end="url(#mermaidSvgId_flowchart-v2-pointEnd)"></path><path d="M716.446,210.333L734.941,222.722C753.436,235.111,790.427,259.889,815.172,272.278C839.917,284.667,852.417,284.667,865.748,284.667C879.08,284.667,893.243,284.667,900.325,284.667L907.406,284.667" id="L_ManageTickets_ViewTickets_0" class="edge-thickness-normal edge-pattern-solid edge-thickness-normal edge-pattern-solid flowchart-link" style="" marker-end="url(#mermaidSvgId_flowchart-v2-pointEnd)"></path><path d="M153.795,458.881L160.098,459.567C166.402,460.254,179.008,461.627,191.561,462.313C204.115,463,216.615,463,241.924,463C267.233,463,305.351,463,343.469,463C381.587,463,419.705,463,445.014,454.778C470.323,446.556,482.823,430.111,495.323,421.889C507.823,413.667,520.323,413.667,533.752,414.154C547.18,414.641,561.537,415.616,568.716,416.103L575.895,416.591" id="L_Agent_AddStation_0" class="edge-thickness-normal edge-pattern-solid edge-thickness-normal edge-pattern-solid flowchart-link" style="" marker-end="url(#mermaidSvgId_flowchart-v2-pointEnd)"></path><path d="M143.145,485.729L151.223,491.829C159.301,497.93,175.458,510.132,189.786,516.233C204.115,522.333,216.615,522.333,241.924,522.333C267.233,522.333,305.351,522.333,343.469,522.333C381.587,522.333,419.705,522.333,445.014,522.333C470.323,522.333,482.823,522.333,495.323,522.333C507.823,522.333,520.323,522.333,532.156,522.333C543.99,522.333,555.156,522.333,560.74,522.333L566.323,522.333" id="L_Agent_DeleteStation_0" class="edge-thickness-normal edge-pattern-solid edge-thickness-normal edge-pattern-solid flowchart-link" style="" marker-end="url(#mermaidSvgId_flowchart-v2-pointEnd)"></path><path d="M125.85,500.656L136.811,520.713C147.771,540.77,169.693,580.885,186.904,600.943C204.115,621,216.615,621,241.924,621C267.233,621,305.351,621,343.469,621C381.587,621,419.705,621,445.014,621C470.323,621,482.823,621,495.323,621C507.823,621,520.323,621,532.608,621C544.892,621,556.962,621,562.997,621L569.031,621" id="L_Agent_ViewStations_0" class="edge-thickness-normal edge-pattern-solid edge-thickness-normal edge-pattern-solid flowchart-link" style="" marker-end="url(#mermaidSvgId_flowchart-v2-pointEnd)"></path><path d="M420.323,241.262L426.573,239.332C432.823,237.401,445.323,233.541,457.823,231.61C470.323,229.68,482.823,229.68,495.323,229.68C507.823,229.68,520.323,229.68,536.807,226.645C553.291,223.61,573.76,217.54,583.994,214.505L594.228,211.471" id="L_Authenticate_ManageTickets_0" class="edge-thickness-normal edge-pattern-solid edge-thickness-normal edge-pattern-solid flowchart-link" style="" marker-end="url(#mermaidSvgId_flowchart-v2-pointEnd)"></path><path d="M399.495,289.333L409.216,293.556C418.937,297.778,438.38,306.222,454.352,330.278C470.323,354.333,482.823,394,495.323,413.833C507.823,433.667,520.323,433.667,533.752,433.179C547.18,432.692,561.537,431.717,568.716,431.23L575.895,430.743" id="L_Authenticate_AddStation_0" class="edge-thickness-normal edge-pattern-solid edge-thickness-normal edge-pattern-solid flowchart-link" style="" marker-end="url(#mermaidSvgId_flowchart-v2-pointEnd)"></path></g><g class="edgeLabels"><g><rect class="background" style="stroke: none"></rect></g><g><rect class="background" style="stroke: none"></rect></g><g><rect class="background" style="stroke: none"></rect></g><g><rect class="background" style="stroke: none"></rect></g><g><rect class="background" style="stroke: none"></rect></g><g><rect class="background" style="stroke: none"></rect></g><g><rect class="background" style="stroke: none"></rect></g><g><rect class="background" style="stroke: none"></rect></g><g><rect class="background" style="stroke: none"></rect></g><g><rect class="background" style="stroke: none"></rect></g><g class="edgeLabel"><g class="label" transform="translate(0, 0)"><text y="-10.1"><tspan class="text-outer-tspan" x="0" y="-0.1em" dy="1.1em"></tspan></text></g></g><g class="edgeLabel"><g class="label" transform="translate(0, 0)"><text y="-10.1"><tspan class="text-outer-tspan" x="0" y="-0.1em" dy="1.1em"></tspan></text></g></g><g class="edgeLabel"><g class="label" transform="translate(0, 0)"><text y="-10.1"><tspan class="text-outer-tspan" x="0" y="-0.1em" dy="1.1em"></tspan></text></g></g><g class="edgeLabel"><g class="label" transform="translate(0, 0)"><text y="-10.1"><tspan class="text-outer-tspan" x="0" y="-0.1em" dy="1.1em"></tspan></text></g></g><g class="edgeLabel"><g class="label" transform="translate(0, 0)"><text y="-10.1"><tspan class="text-outer-tspan" x="0" y="-0.1em" dy="1.1em"></tspan></text></g></g><g class="edgeLabel"><g class="label" transform="translate(0, 0)"><text y="-10.1"><tspan class="text-outer-tspan" x="0" y="-0.1em" dy="1.1em"></tspan></text></g></g><g class="edgeLabel"><g class="label" transform="translate(0, 0)"><text y="-10.1"><tspan class="text-outer-tspan" x="0" y="-0.1em" dy="1.1em"></tspan></text></g></g><g class="edgeLabel"><g class="label" transform="translate(0, 0)"><text y="-10.1"><tspan class="text-outer-tspan" x="0" y="-0.1em" dy="1.1em"></tspan></text></g></g><g class="edgeLabel"><g class="label" transform="translate(0, 0)"><text y="-10.1"><tspan class="text-outer-tspan" x="0" y="-0.1em" dy="1.1em"></tspan></text></g></g><g class="edgeLabel"><g class="label" transform="translate(0, 0)"><text y="-10.1"><tspan class="text-outer-tspan" x="0" y="-0.1em" dy="1.1em"></tspan></text></g></g></g><g class="nodes"><g class="node default" id="flowchart-Authenticate-8" transform="translate(343.46875, 265.00000286102295)"><rect class="basic label-container" style="" x="-76.85416793823242" y="-24.33333396911621" width="153.70833587646484" height="48.66666793823242"></rect><g class="label" style="" transform="translate(0, -9.333333969116211)"><rect></rect><g><rect class="background" style="stroke: none"></rect><text y="-10.1" style=""><tspan class="text-outer-tspan" x="0" y="-0.1em" dy="1.1em"><tspan font-style="normal" class="text-inner-tspan" font-weight="normal">Authenticate</tspan></tspan></text></g></g></g><g class="node default" id="flowchart-Agent-0" transform="translate(99.80729293823242, 453.0000047683716)"><circle class="basic label-container" style="" r="54.30729293823242" cx="0" cy="0"></circle><g class="label" style="" transform="translate(0, -9.333333969116211)"><rect></rect><g><rect class="background" style="stroke: none"></rect><text y="-10.1" style=""><tspan class="text-outer-tspan" x="0" y="-0.1em" dy="1.1em"><tspan font-style="normal" class="text-inner-tspan" font-weight="normal">Wilaya</tspan><tspan font-style="normal" class="text-inner-tspan" font-weight="normal"> Agent</tspan></tspan></text></g></g></g><g class="node default" id="flowchart-ManageTickets-1" transform="translate(680.1197891235352, 186.00000190734863)"><rect class="basic label-container" style="" x="-84.89062881469727" y="-24.33333396911621" width="169.78125762939453" height="48.66666793823242"></rect><g class="label" style="" transform="translate(0, -9.333333969116211)"><rect></rect><g><rect class="background" style="stroke: none"></rect><text y="-10.1" style=""><tspan class="text-outer-tspan" x="0" y="-0.1em" dy="1.1em"><tspan font-style="normal" class="text-inner-tspan" font-weight="normal">Manage</tspan><tspan font-style="normal" class="text-inner-tspan" font-weight="normal"> Tickets</tspan></tspan></text></g></g></g><g class="node default" id="flowchart-ApproveTicket-2" transform="translate(986.6197891235352, 87.33333396911621)"><rect class="basic label-container" style="" x="-84.203125" y="-24.33333396911621" width="168.40625" height="48.66666793823242"></rect><g class="label" style="" transform="translate(0, -9.333333969116211)"><rect></rect><g><rect class="background" style="stroke: none"></rect><text y="-10.1" style=""><tspan class="text-outer-tspan" x="0" y="-0.1em" dy="1.1em"><tspan font-style="normal" class="text-inner-tspan" font-weight="normal">Approve</tspan><tspan font-style="normal" class="text-inner-tspan" font-weight="normal"> Ticket</tspan></tspan></text></g></g></g><g class="node default" id="flowchart-RefuseTicket-3" transform="translate(986.6197891235352, 186.00000190734863)"><rect class="basic label-container" style="" x="-78.17708587646484" y="-24.33333396911621" width="156.3541717529297" height="48.66666793823242"></rect><g class="label" style="" transform="translate(0, -9.333333969116211)"><rect></rect><g><rect class="background" style="stroke: none"></rect><text y="-10.1" style=""><tspan class="text-outer-tspan" x="0" y="-0.1em" dy="1.1em"><tspan font-style="normal" class="text-inner-tspan" font-weight="normal">Refuse</tspan><tspan font-style="normal" class="text-inner-tspan" font-weight="normal"> Ticket</tspan></tspan></text></g></g></g><g class="node default" id="flowchart-ViewTickets-4" transform="translate(986.6197891235352, 284.66666984558105)"><rect class="basic label-container" style="" x="-75.21354293823242" y="-24.33333396911621" width="150.42708587646484" height="48.66666793823242"></rect><g class="label" style="" transform="translate(0, -9.333333969116211)"><rect></rect><g><rect class="background" style="stroke: none"></rect><text y="-10.1" style=""><tspan class="text-outer-tspan" x="0" y="-0.1em" dy="1.1em"><tspan font-style="normal" class="text-inner-tspan" font-weight="normal">View</tspan><tspan font-style="normal" class="text-inner-tspan" font-weight="normal"> Tickets</tspan></tspan></text></g></g></g><g class="node default" id="flowchart-AddStation-5" transform="translate(680.1197891235352, 423.66667079925537)"><rect class="basic label-container" style="" x="-100.234375" y="-24.33333396911621" width="200.46875" height="48.66666793823242"></rect><g class="label" style="" transform="translate(0, -9.333333969116211)"><rect></rect><g><rect class="background" style="stroke: none"></rect><text y="-10.1" style=""><tspan class="text-outer-tspan" x="0" y="-0.1em" dy="1.1em"><tspan font-style="normal" class="text-inner-tspan" font-weight="normal">Add</tspan><tspan font-style="normal" class="text-inner-tspan" font-weight="normal"> Parking</tspan><tspan font-style="normal" class="text-inner-tspan" font-weight="normal"> Station</tspan></tspan></text></g></g></g><g class="node default" id="flowchart-DeleteStation-6" transform="translate(680.1197891235352, 522.3333387374878)"><rect class="basic label-container" style="" x="-109.796875" y="-24.33333396911621" width="219.59375" height="48.66666793823242"></rect><g class="label" style="" transform="translate(0, -9.333333969116211)"><rect></rect><g><rect class="background" style="stroke: none"></rect><text y="-10.1" style=""><tspan class="text-outer-tspan" x="0" y="-0.1em" dy="1.1em"><tspan font-style="normal" class="text-inner-tspan" font-weight="normal">Delete</tspan><tspan font-style="normal" class="text-inner-tspan" font-weight="normal"> Parking</tspan><tspan font-style="normal" class="text-inner-tspan" font-weight="normal"> Station</tspan></tspan></text></g></g></g><g class="node default" id="flowchart-ViewStations-7" transform="translate(680.1197891235352, 621.0000066757202)"><rect class="basic label-container" style="" x="-107.08854675292969" y="-24.33333396911621" width="214.17709350585938" height="48.66666793823242"></rect><g class="label" style="" transform="translate(0, -9.333333969116211)"><rect></rect><g><rect class="background" style="stroke: none"></rect><text y="-10.1" style=""><tspan class="text-outer-tspan" x="0" y="-0.1em" dy="1.1em"><tspan font-style="normal" class="text-inner-tspan" font-weight="normal">View</tspan><tspan font-style="normal" class="text-inner-tspan" font-weight="normal"> Parking</tspan><tspan font-style="normal" class="text-inner-tspan" font-weight="normal"> Stations</tspan></tspan></text></g></g></g></g></g></g></g></g></svg>